<?xml version="1.0" standalone="no"?><!DOCTYPE svg PUBLIC "-//W3C//DTD SVG 1.1//EN" "http://www.w3.org/Graphics/SVG/1.1/DTD/svg11.dtd"><svg t="1600135084880" class="icon" viewBox="0 0 1024 1024" version="1.1" xmlns="http://www.w3.org/2000/svg" p-id="4718" width="16" height="16" xmlns:xlink="http://www.w3.org/1999/xlink"><defs><style type="text/css"></style></defs><path d="M476.91 270.75c-4.6 0-18.58 0-20.81-10.02-2.83-12.71-27.45-131.7-28.5-136.76-0.39-1.89 0.1-3.86 1.33-5.34l18.86-22.78a6.364 6.364 0 0 1 5.95-2.21c0.24 0.04 24.47 4.03 58.16 4.03 19.83 0 38.99-1.36 56.94-4.04a6.346 6.346 0 0 1 6.39 3.02c3.3 5.49 12.07 50.05 17 76.11 0.32 1.69-0.06 3.44-1.05 4.85l-58.2 82.57a6.357 6.357 0 0 1-3.65 2.5c-1.32 0.32-32.53 8.07-52.42 8.07z" fill="#FCB483" p-id="4719"></path><path d="M569.79 99.91c3.2 5.34 16.21 74.03 16.21 74.03l-58.2 82.57s-31.54 7.89-50.88 7.89c-7.91 0-13.78-1.32-14.6-5.04-2.85-12.81-28.48-136.66-28.48-136.66l18.86-22.78s24.52 4.11 59.21 4.11c17.34-0.01 37.23-1.04 57.88-4.12m0-12.72c-0.62 0-1.25 0.05-1.88 0.14-17.64 2.64-36.48 3.97-56 3.97-33.25 0-56.87-3.9-57.11-3.94-0.7-0.12-1.41-0.18-2.1-0.18a12.7 12.7 0 0 0-9.79 4.61l-18.86 22.78a12.73 12.73 0 0 0-2.66 10.69c1.05 5.06 25.68 124.09 28.52 136.85 0.82 3.68 3.63 10.3 13.28 13.29 3.68 1.14 8.17 1.7 13.73 1.7 20.66 0 52.61-7.93 53.96-8.27 2.96-0.74 5.55-2.52 7.31-5.01l58.2-82.57c1.98-2.81 2.74-6.31 2.1-9.69-0.03-0.17-3.31-17.47-6.94-35.2-7.74-37.81-9.4-40.57-10.86-43.01a12.738 12.738 0 0 0-10.9-6.16zM273.04 224.01s-29.89 366-51.04 388.66c-7.69 1.07-15.29 1.54-22.76 1.54-65.34 0-119.53-36.7-119.53-36.7s59.47-141.47 109.93-234.18c57.47-105.57 83.4-119.32 83.4-119.32m0-12.71h-0.16-0.01c-2.28 0.03-4.42 0.66-6.26 1.74-6 3.44-33.31 23.48-88.14 124.22C128.3 429.47 68.59 571.18 67.99 572.6c-2.35 5.59-0.43 12.06 4.59 15.45 2.34 1.59 58.2 38.88 126.65 38.88 8.29 0 16.54-0.56 24.5-1.67 2.89-0.4 5.56-1.78 7.55-3.92 4.81-5.16 10.73-15.78 20.17-77.03 5.14-33.37 10.73-78.16 16.63-133.12 9.71-90.58 17.09-179.68 17.59-185.82 0.05-0.45 0.07-0.9 0.07-1.37 0-7.02-5.68-12.71-12.7-12.71 0.01 0.01 0 0.01 0 0.01z m0 25.43z" fill="#77380E" p-id="4720"></path><path d="M273.04 224.01s-25.93 13.75-83.4 119.33C139.19 436.05 79.72 577.52 79.72 577.52s67.26 45.55 142.28 35.15c21.15-22.66 51.04-388.66 51.04-388.66z" fill="#FFD7DF" p-id="4721"></path><path d="M222 612.67c21.15-22.66 51.04-388.66 51.04-388.66s-21.12 11.2-67.45 90.94l-45.12 295.19c18.92 3.88 39.9 5.53 61.53 2.53z" fill="#FFFFFF" p-id="4722"></path><path d="M750.96 224.01s25.93 13.75 83.4 119.33c50.46 92.71 109.93 234.18 109.93 234.18s-54.19 36.7-119.52 36.7c-7.47 0-15.07-0.48-22.76-1.54-21.16-22.67-51.05-388.67-51.05-388.67m0-12.71c-2.44 0-4.88 0.7-6.99 2.1a12.71 12.71 0 0 0-5.68 11.65c0.08 0.92 7.6 92.74 17.62 186.15 5.89 54.96 11.49 99.75 16.63 133.12 9.43 61.24 15.36 71.87 20.17 77.03 1.99 2.13 4.66 3.52 7.55 3.92 7.97 1.11 16.21 1.67 24.5 1.67 68.45 0 124.31-37.29 126.65-38.88 5.02-3.4 6.94-9.87 4.59-15.45-0.6-1.42-60.3-143.13-110.48-235.33-56.43-103.69-83.71-121.89-88.61-124.49-1.86-1-3.91-1.49-5.95-1.49z" fill="#77380E" p-id="4723"></path><path d="M750.96 224.01s25.93 13.75 83.4 119.33c50.46 92.71 109.93 234.18 109.93 234.18S877.02 623.08 802 612.67c-21.15-22.66-51.04-388.66-51.04-388.66z" fill="#FFD7DF" p-id="4724"></path><path d="M802 612.67c-21.15-22.66-51.04-388.66-51.04-388.66s21.12 11.2 67.45 90.94l45.12 295.19c-18.92 3.88-39.9 5.53-61.53 2.53z" fill="#FFFFFF" p-id="4725"></path><path d="M580.82 126.39s156.36 56.65 179.02 113.3c22.66 61.18 83.84 578.43 72.51 657.74-27.19 20.39-280.99 66.25-385.22 18.13-4.53-65.71 0-671.34 0-671.34h138.23l-4.54-117.83z" fill="#FFD7DF" p-id="4726"></path><path d="M610.25 936.26c21.41-0.79 42.94-2.42 63.72-4.6l0.67-23.84 0.83-29.39 0.14-5.07 0.75-26.47 1.79-63.54 1.16-40.94 0.14-5.09 1.18-41.87 1.79-63.54 1.18-41.97 0.14-5.09 1.14-40.85 1.79-63.54 1.16-40.9 0.14-5.1 1.18-41.91 1.79-63.54 0.99-35.23 0.14-5.09 0.93-33.09 1.79-63.54 0.34-11.95c-20.72-12.42-43.19-23.52-62.68-32.34l-1.21 42.44-1.78 63.54-0.93 32.87-0.14 5.09-1 35.47-1.79 63.54-1.17 41.68-0.15 5.09-1.16 41.14-1.79 63.53-1.14 40.62-0.14 5.09-1.18 42.2-1.79 63.54-1.17 41.65-0.15 5.09-1.16 41.16-1.79 63.54-0.74 26.45-0.15 5.07-0.83 29.57-0.84 30.12z" fill="#FFFFFF" opacity=".4" p-id="4727"></path><path d="M446.22 385.46l3.14 0.09 5.09 0.15 33.15 0.97 63.54 1.86 36.25 1.06 5.09 0.15 33.16 0.97 63.54 1.84 45.01 1.31 5.09 0.15 25.73 0.75 22.86 0.67c-3.22-23.03-6.41-44.54-9.48-63.88l-11.58-0.34-25.57-0.74-5.09-0.15-45.19-1.32-63.54-1.84-32.99-0.97-5.09-0.14-36.41-1.07-63.54-1.84-32.99-0.97-5.07-0.14-4.73-0.14c-0.13 18.74-0.26 40.19-0.38 63.57z" fill="#FFFFFF" opacity=".4" p-id="4728"></path><path d="M447.09 248.42l6.47 0.19 5.09 0.15 32.8 0.95 63.53 1.86 36.6 1.07 5.09 0.14 32.81 0.95 63.53 1.86 45.38 1.32 5.09 0.15 21.35 0.62c-1.82-7.83-3.5-13.92-5-17.99-2.96-7.43-8.23-14.84-15.13-22.14-1.58-1.65-3.22-3.31-4.95-4.95-7.21-6.84-15.75-13.54-25.07-19.99l-19.87-0.58-63.54-1.86-32.64-0.95-5.09-0.14-10.32-0.31-26.44-0.76-1.58 56.2H447.12l-0.03 4.21z" fill="#FFFFFF" opacity=".4" p-id="4729"></path><path d="M445.49 537.03l4.28 0.11 33.54 0.98 63.54 1.86 35.85 1.04 5.09 0.14 33.55 0.98 63.54 1.86 44.61 1.3 5.09 0.15 26.13 0.76 46.48 1.35c-2.49-21.51-5.06-42.9-7.68-63.81l-37.01-1.08-25.96-0.75-5.09-0.15-44.78-1.31-63.54-1.84-33.39-0.98-5.09-0.15-36.02-1.04-63.54-1.86-33.37-0.97-5.09-0.15-0.89-0.03-0.15 33.67-0.1 29.92z" fill="#FFFFFF" opacity=".4" p-id="4730"></path><path d="M445.11 688.58h0.01l33.93 0.99 63.54 1.84 35.45 1.04 5.09 0.14 33.96 0.99 63.54 1.86 44.22 1.28 5.09 0.15 26.52 0.78 63.54 1.84 2.5 0.08 0.14-4.81c-0.62-6.75-1.27-13.57-1.93-20.46-1.23-12.65-2.52-25.5-3.85-38.5l-58.61-1.72-26.36-0.76-5.09-0.15-44.38-1.28-63.54-1.86-33.79-0.99-5.09-0.14-35.62-1.04-63.53-1.86-33.78-0.98-1.84-0.05c-0.05 21.38-0.09 42.55-0.1 63.14l-0.02 0.47z" fill="#FFFFFF" opacity=".4" p-id="4731"></path><path d="M445.19 776.54c0.08 23.3 0.18 44.75 0.33 63.61l29.27 0.85 63.55 1.84 35.05 1.03 5.09 0.15 34.35 0.99 63.54 1.86 43.83 1.27 5.09 0.15 26.92 0.79 63.54 1.84 6.78 0.2 1.86-63.54-6.84-0.2-63.54-1.84-26.75-0.79-5.09-0.14-43.99-1.28-63.54-1.86-34.19-0.99-5.09-0.15-35.22-1.03-63.54-1.84-31.41-0.92z" fill="#FFFFFF" opacity=".4" p-id="4732"></path><path d="M717.79 926.09c1.72-0.25 3.42-0.52 5.11-0.78l0.51-16.2 0.89-29.24 0.17-5.09 0.81-26.48 1.96-63.54 1.25-40.75 0.17-5.09 1.3-42.05 1.96-63.54 1.28-41.79 0.15-5.09 1.26-41.02 1.96-63.53 1.26-40.74 0.15-5.09 1.3-42.08 1.96-63.53 1.08-35.06 0.15-5.09 1.03-33.26 1.22-39.5c-1.58-1.65-3.22-3.31-4.95-4.95l-1.36 44.3-1.03 33.25-0.15 5.09-1.08 35.08-1.96 63.53-1.3 42.07-0.15 5.09-1.26 40.75-1.96 63.53-1.26 41-0.15 5.09-1.28 41.8-1.96 63.54-1.3 42.03-0.15 5.09-1.26 40.77-1.96 63.53-0.81 26.48-0.17 5.09-0.89 29.25-0.54 17.13zM570.53 936.72c1.69 0.03 3.38 0.05 5.09 0.06l0.97-31.58 0.92-29.67 0.15-5.09 0.81-26.41 1.96-63.54 1.27-41.28 0.17-5.09 1.27-41.52 1.96-63.54 1.31-42.3 0.15-5.09 1.25-40.51 1.96-63.53 1.27-41.24 0.15-5.09 1.28-41.56 1.96-63.54 1.09-35.57 0.15-5.09 1-32.75 1.96-63.54 1.7-55.25c-1.77-0.72-3.45-1.4-5.02-2.02l-1.77 57.14-1.96 63.54-1 32.71-0.15 5.1-1.09 35.6-1.96 63.53-1.28 41.54-0.15 5.1-1.27 41.26-1.96 63.54-1.25 40.48-0.15 5.09-1.31 42.32-1.96 63.54-1.27 41.5-0.17 5.09-1.27 41.29-1.96 63.54-0.81 26.42-0.15 5.07-0.92 29.69-0.97 31.65z" fill="#FFFFFF" p-id="4733"></path><path d="M472.43 924.7c18.75 5.28 40.29 8.62 63.3 10.41l0.86-30.98 0.84-29.8 0.14-5.07 0.75-26.41 1.79-63.54 1.17-41.42 0.14-5.09 1.17-41.38 1.78-63.54 1.21-42.45 0.14-5.09 1.13-40.35 1.79-63.54 1.17-41.4 0.14-5.09 1.17-41.42 1.79-63.54 1-35.73 0.14-5.09 0.92-32.6 0.22-7.35H491.6l-0.15 5.49-0.92 32.37-0.14 5.09-1.02 35.97-1.79 63.53-1.16 41.19-0.15 5.09-1.17 41.63-1.79 63.54-1.13 40.13-0.14 5.09-1.19 42.68-1.79 63.56-1.16 41.14-0.15 5.1-1.17 41.65-1.8 63.52-0.74 26.37-0.15 5.07-0.84 29.99-0.62 22.27z" fill="#FFFFFF" opacity=".4" p-id="4734"></path><path d="M445.49 537.03c-0.05 13.27-0.1 26.64-0.14 40.02 0 1.69-0.01 3.39-0.01 5.09-0.05 14.32-0.09 28.63-0.11 42.85-0.05 21.38-0.09 42.55-0.1 63.14l1.95-63.09 1.31-42.8 0.17-5.09 1.23-40.01 1.96-63.53 1.28-41.74 0.15-5.09 1.27-41.08 1.95-63.53 1.12-36.08 0.15-5.09 0.99-32.24 0.14-4.54h-5.09l-0.14 4.39-0.99 32.23-0.15 5.09-1.11 36.11-1.96 63.52-1.27 41.07-0.15 5.09-1.28 41.75-1.04 33.64-0.13 29.92z" fill="#FFFFFF" p-id="4735"></path><path d="M446.83 285.75l5.59 0.18 5.09 0.17 32.89 1.08 63.53 2.09 36.5 1.2 5.09 0.17 32.9 1.07 63.53 2.08 45.26 1.47 5.09 0.17 25.47 0.84 4.74 0.15c-0.32-1.74-0.62-3.46-0.93-5.12l-3.66-0.11-25.47-0.84-5.09-0.17-45.27-1.47-63.53-2.08-32.89-1.07-5.09-0.18-36.51-1.18-63.53-2.09-32.88-1.11-5.09-0.17-5.72-0.18c0 1.65-0.01 3.36-0.02 5.1zM445.96 431.64l1.97 0.06 5.09 0.17 33.26 1.08 63.55 2.09 36.12 1.18 5.09 0.17 33.27 1.08 63.54 2.08 44.88 1.46 5.09 0.17 25.85 0.84 30.65 1c-0.23-1.7-0.45-3.41-0.67-5.11l-29.83-0.98-25.85-0.84-5.09-0.17-44.89-1.47-63.53-2.07-33.27-1.08-5.09-0.18-36.13-1.17-63.53-2.09-33.26-1.08-5.09-0.17-2.08-0.08c-0.02 1.7-0.04 3.41-0.05 5.11zM445.34 582.14l3.04 0.1 33.67 1.09 63.55 2.08 35.73 1.17 5.09 0.17 33.67 1.09 63.54 2.08 44.49 1.45 5.09 0.17 26.24 0.86 48.78 1.59 0.17-5.09-48.81-1.59-26.23-0.86-5.09-0.17-44.5-1.45-63.54-2.08-33.65-1.09-5.09-0.17-35.74-1.17-63.54-2.08-33.64-1.09-3.19-0.1c-0.03 1.69-0.04 3.39-0.04 5.09zM445.12 729.64c-0.01 1.7 0 3.41 0 5.1l32.62 1.07 63.54 2.07 35.32 1.16 5.09 0.17 34.07 1.12 63.54 2.07 44.09 1.45 5.07 0.17 26.65 0.86 53.08 1.74 0.17-5.09-53.11-1.74-26.62-0.86-5.09-0.17-44.1-1.45-63.53-2.07-34.06-1.12-5.09-0.17-35.34-1.16-63.53-2.08-32.77-1.07zM474.05 867.37l-28.24-0.84c0.01 1.73 0.04 3.42 0.06 5.09l28.02 0.83 63.54 1.88 34.98 1.04 5.09 0.15 34.43 1.02 63.54 1.88 43.74 1.3 5.09 0.15 27 0.8 63.54 1.88 18.64 0.55c0.06-1.61 0.11-3.31 0.14-5.07l-18.64-0.56-63.54-1.88-26.98-0.8-5.09-0.15-43.76-1.28-63.53-1.88-34.43-1.03-5.09-0.14-34.99-1.04-63.52-1.9z" fill="#FFFFFF" p-id="4736"></path><path d="M446.5 901.73c0.19 5.87 0.39 10.54 0.62 13.83 7.68 3.55 16.16 6.57 25.31 9.14 18.75 5.28 40.29 8.62 63.3 10.41 11.29 0.89 22.94 1.4 34.8 1.6 1.69 0.03 3.38 0.05 5.09 0.06 11.43 0.1 23.01-0.09 34.63-0.52 21.41-0.79 42.94-2.42 63.72-4.6 15.09-1.6 29.8-3.48 43.81-5.57 1.72-0.25 3.42-0.52 5.11-0.78 9.47-1.46 18.6-3.01 27.27-4.6 16.87-3.12 32-6.42 44.65-9.69l-44.33-1.18-27.08-0.72-5.09-0.14-43.67-1.16-63.54-1.7-34.52-0.92-5.09-0.14-34.9-0.93-63.54-1.69-26.55-0.7z" fill="#FFFFFF" opacity=".4" p-id="4737"></path><path d="M750.17 920.71c16.87-3.12 32-6.42 44.65-9.69h0.01l19.2 0.51 0.17-6.1 0.65-22.87 0.14-5.09 0.75-26.53 1.79-63.54 2.48-87.89 0.71-25.19c-1.23-12.65-2.52-25.5-3.85-38.5-2.99-29.05-6.26-58.78-9.66-88.26-2.49-21.51-5.06-42.9-7.68-63.81-1.73-13.82-3.47-27.42-5.21-40.72-0.23-1.7-0.45-3.41-0.67-5.11-1.93-14.6-3.87-28.81-5.78-42.48-3.22-23.03-6.41-44.54-9.48-63.88-2.01-12.73-3.98-24.5-5.86-35.15-0.32-1.74-0.62-3.46-0.93-5.12-1.09-6.05-2.16-11.68-3.19-16.88l-0.47 16.77-0.15 5.09-0.98 34.96-1.79 63.54-1.18 42.17-0.15 5.09-1.14 40.65-1.79 63.54-1.16 41.12-0.14 5.09-1.17 41.69-1.79 63.56-1.2 42.13-0.14 5.09-1.14 40.67-1.79 63.54-0.75 26.5-0.14 5.09-0.81 29.17-0.36 10.84z" fill="#FFFFFF" opacity=".4" p-id="4738"></path><path d="M580.82 126.39s156.35 56.65 179.02 113.3c22.66 61.18 83.84 578.43 72.51 657.74-18.44 13.83-141.09 39.37-250.64 39.37-52 0-101.03-5.75-134.59-21.24-4.53-65.71 0-671.34 0-671.34h138.23l-4.53-117.83m0-10c-2.09 0-4.16 0.66-5.9 1.92a9.976 9.976 0 0 0-4.09 8.46l4.13 107.45H447.12c-5.49 0-9.96 4.43-10 9.93-0.19 24.74-4.48 606.76 0.02 672.1 0.25 3.64 2.47 6.86 5.78 8.39 31.85 14.71 78.55 22.16 138.78 22.16 66.97 0 129.74-9.18 161.2-14.65 18.27-3.18 79.13-14.49 95.44-26.72 2.12-1.59 3.52-3.96 3.9-6.59 6.16-43.12-8.09-202.98-23.47-338.21-15.08-132.51-37.02-290.55-49.56-324.42l-0.09-0.24c-10.33-25.82-44.9-53.78-102.77-83.1-41.98-21.27-80.5-35.3-82.12-35.89-1.11-0.39-2.27-0.59-3.41-0.59z" fill="#77380E" p-id="4739"></path><path d="M663.07 171.82c-0.46-3.34-1.58-7.13-2.97-10.89-8.22-4.14-16.32-8-24.01-11.53l-53.1 33.6 2.36 61.23h-99.13l-23.91 15.13 5.52 542.67 9.02 123.88c41.04 10.64 94.33 12.54 147.2 9.73-2.98-66.14-25.72-577.11-17.96-625.03 51.37-20.15 63.24-93.66 56.98-138.79z" fill="#FFFFFF" p-id="4740"></path><path d="M581.29 107.13l-49.2 136.59s24.27 53.38 65.82 40.54c26.44-9.82 42.43-80.07 41.98-112.55-0.44-12.84-23.1-45.32-58.6-64.58z" fill="#FFFBB4" p-id="4741"></path><path d="M584.33 216.51h-42.44l-9.8 27.21s24.27 53.38 65.82 40.54c2.7-1 5.28-2.64 7.76-4.8v-41.17c-0.01-21.64-21.34-21.78-21.34-21.78z" fill="#FFFFFF" p-id="4742"></path><path d="M581.29 107.13c35.5 19.26 58.16 51.74 58.6 64.58 0.44 32.48-15.55 102.73-41.98 112.55-4.46 1.38-8.72 1.99-12.78 1.99-33.7 0-53.04-42.53-53.04-42.53l49.2-136.59m0-10a10.013 10.013 0 0 0-9.41 6.62l-49.2 136.59c-0.88 2.45-0.77 5.15 0.31 7.53 0.9 1.98 22.46 48.39 62.14 48.39 5.2 0 10.49-0.82 15.73-2.44 0.18-0.05 0.35-0.11 0.53-0.18 15.01-5.57 27.5-23.79 37.12-54.13 7.17-22.6 11.63-49.26 11.38-67.93 0-0.07 0-0.14-0.01-0.21-0.45-13.07-13.07-29.5-18.48-35.96-12.33-14.73-28.44-27.89-45.35-37.07a9.992 9.992 0 0 0-4.76-1.21z" fill="#77380E" p-id="4743"></path><path d="M442.56 126.39s-156.36 56.65-179.02 113.3c-22.66 61.18-83.84 578.43-72.51 657.74 27.19 20.39 280.99 66.25 385.22 18.13 4.53-65.71 0-671.34 0-671.34H438.03l4.53-117.83z" fill="#FFD7DF" p-id="4744"></path><path d="M484.31 292.13c22.39-19.96 34.5-40 38.77-47.91h-85.06l4.21-109.57-9.78-4.43c-15.33 5.98-46 18.55-77.24 34.83 0.94 34.67 11.45 224.31 129.1 127.08z" fill="#FFFFFF" p-id="4745"></path><path d="M413.12 936.26c-21.41-0.79-42.94-2.42-63.72-4.6l-0.67-23.84-0.83-29.39-0.14-5.07-0.75-26.47-1.79-63.54-1.16-40.94-0.14-5.09-1.18-41.87-1.79-63.54-1.18-41.97-0.14-5.09-1.14-40.85-1.79-63.54-1.16-40.9-0.14-5.1-1.18-41.91-1.81-63.55-0.99-35.23-0.14-5.09-0.93-33.09-1.79-63.54-0.34-11.95c20.72-12.42 43.19-23.52 62.68-32.34l1.21 42.44 1.78 63.54 0.93 32.87 0.14 5.09 1 35.47 1.79 63.54 1.17 41.68 0.15 5.09 1.16 41.14 1.79 63.53 1.14 40.62 0.14 5.09 1.18 42.2 1.79 63.54 1.17 41.65 0.15 5.09 1.16 41.16 1.79 63.54 0.74 26.45 0.15 5.07 0.83 29.57 0.86 30.13z" fill="#FFFFFF" opacity=".4" p-id="4746"></path><path d="M577.16 385.46l-3.14 0.09-5.09 0.15-33.15 0.97-63.54 1.86-36.24 1.05-5.09 0.15-33.16 0.97-63.54 1.84-45.01 1.31-5.09 0.15-25.73 0.75-22.86 0.67c3.22-23.03 6.41-44.54 9.48-63.88l11.58-0.34 25.57-0.74 5.09-0.15 45.17-1.32 63.54-1.84 32.99-0.97 5.09-0.14 36.41-1.07 63.54-1.84 32.99-0.97 5.07-0.14 4.73-0.14c0.13 18.75 0.26 40.2 0.39 63.58z" fill="#FFFFFF" opacity=".4" p-id="4747"></path><path d="M576.28 248.42l-6.47 0.19-5.09 0.15-32.8 0.95-63.53 1.86-36.6 1.07-5.09 0.14-32.81 0.95-63.53 1.86-45.38 1.32-5.09 0.15-21.35 0.62c1.82-7.83 3.5-13.92 5-17.99 2.96-7.43 8.23-14.84 15.13-22.14 1.58-1.65 3.22-3.31 4.95-4.95 7.21-6.84 15.75-13.54 25.07-19.99l19.87-0.58 63.54-1.86 32.64-0.95 5.09-0.14 10.32-0.31 26.44-0.76 1.58 56.2h108.08c0.01 0.01 0.02 1.45 0.03 4.21z" fill="#FFFFFF" opacity=".4" p-id="4748"></path><path d="M577.77 507.1l-0.15-33.67-0.89 0.03-5.09 0.15-33.37 0.97-63.54 1.86-36.02 1.04-5.09 0.15-33.39 0.98-63.54 1.84-44.78 1.31-5.09 0.15-25.96 0.75-37.01 1.08c-2.62 20.91-5.19 42.3-7.68 63.81l46.48-1.35 26.13-0.76 5.09-0.15 44.61-1.3 63.54-1.86 33.55-0.98 5.09-0.14 35.85-1.04 63.54-1.86 33.54-0.98 4.28-0.11-0.1-29.92z" fill="#FFFFFF" opacity=".4" p-id="4749"></path><path d="M578.26 688.58h-0.01l-33.93 0.99-63.54 1.84-35.45 1.04-5.09 0.14-33.96 0.99-63.54 1.86-44.22 1.28-5.09 0.15-26.52 0.78-63.54 1.84-2.5 0.08-0.14-4.81c0.62-6.75 1.27-13.57 1.93-20.46 1.23-12.65 2.52-25.5 3.85-38.5l58.61-1.72 26.36-0.76 5.09-0.15 44.38-1.28 63.54-1.86 33.79-0.99 5.09-0.14 35.62-1.04 63.53-1.86 33.78-0.98 1.84-0.05c0.05 21.38 0.09 42.55 0.1 63.14l0.02 0.47z" fill="#FFFFFF" opacity=".4" p-id="4750"></path><path d="M578.19 776.54c-0.08 23.3-0.18 44.75-0.33 63.61l-29.27 0.85-63.55 1.84-35.05 1.03-5.09 0.15-34.35 0.99-63.54 1.86-43.83 1.27-5.09 0.15-26.92 0.79-63.54 1.84-6.78 0.2-1.86-63.54 6.84-0.2 63.54-1.84 26.75-0.79 5.09-0.14 43.99-1.28 63.54-1.86 34.19-0.99 5.09-0.15 35.22-1.03 63.54-1.84 31.41-0.92z" fill="#FFFFFF" opacity=".4" p-id="4751"></path><path d="M305.59 926.09c-1.72-0.25-3.42-0.52-5.11-0.78l-0.51-16.2-0.89-29.24-0.17-5.09-0.81-26.48-1.96-63.54-1.25-40.75-0.17-5.09-1.3-42.05-1.96-63.54-1.28-41.79-0.15-5.09-1.26-41.02-1.96-63.53-1.26-40.74-0.15-5.09-1.3-42.08-1.96-63.53-1.08-35.06-0.15-5.09-1.03-33.26-1.22-39.5c1.58-1.65 3.22-3.31 4.95-4.95l1.36 44.3 1.03 33.25 0.15 5.09 1.08 35.08 1.96 63.53 1.3 42.07 0.15 5.09 1.26 40.75 1.96 63.53 1.26 41 0.15 5.09 1.28 41.8 1.96 63.54 1.3 42.03 0.15 5.09 1.26 40.77 1.96 63.53 0.81 26.48 0.17 5.09 0.89 29.25 0.54 17.13zM452.84 936.72c-1.69 0.03-3.38 0.05-5.09 0.06l-0.97-31.58-0.92-29.67-0.15-5.09-0.81-26.41-1.96-63.54-1.27-41.28-0.17-5.09-1.27-41.52-1.96-63.54-1.31-42.3-0.15-5.09-1.25-40.51-1.96-63.53-1.27-41.24-0.15-5.09-1.28-41.56-1.96-63.54-1.09-35.57-0.15-5.09-1-32.75-1.96-63.54-1.7-55.25c1.77-0.72 3.45-1.4 5.02-2.02l1.77 57.14 1.96 63.54 1 32.71 0.15 5.1 1.09 35.6 1.96 63.53 1.28 41.54 0.15 5.1 1.27 41.26 1.96 63.54 1.25 40.48 0.15 5.09 1.31 42.32 1.96 63.54 1.27 41.5 0.17 5.09 1.27 41.29 1.96 63.54 0.81 26.42 0.15 5.07 0.92 29.69 0.97 31.65z" fill="#FFFFFF" p-id="4752"></path><path d="M550.94 924.7c-18.75 5.28-40.29 8.62-63.3 10.41l-0.86-30.98-0.84-29.8-0.14-5.07-0.75-26.41-1.79-63.54-1.17-41.42-0.14-5.09-1.17-41.38-1.78-63.54-1.21-42.45-0.14-5.09-1.13-40.35-1.79-63.54-1.17-41.4-0.14-5.09-1.17-41.42-1.79-63.54-1-35.73-0.14-5.09-0.92-32.6-0.22-7.35h63.59l0.15 5.49 0.92 32.37 0.14 5.09 1.02 35.97 1.79 63.53 1.16 41.19 0.15 5.09 1.17 41.63 1.79 63.54 1.13 40.13 0.14 5.09 1.19 42.68 1.79 63.56 1.16 41.14 0.15 5.1 1.17 41.65 1.79 63.54 0.74 26.37 0.15 5.07 0.84 29.99 0.63 22.25z" fill="#FFFFFF" opacity=".4" p-id="4753"></path><path d="M577.77 507.1l-1.04-33.64-1.28-41.75-0.15-5.09-1.27-41.07-1.96-63.52-1.11-36.11-0.15-5.09-0.99-32.23-0.14-4.39h-5.09l0.14 4.54 0.99 32.24 0.15 5.09 1.12 36.08 1.95 63.53 1.27 41.08 0.15 5.09 1.28 41.74 1.96 63.53 1.23 40.01 0.17 5.09 1.31 42.8 1.95 63.09c-0.01-20.58-0.05-41.75-0.1-63.14-0.03-14.21-0.06-28.53-0.11-42.85 0-1.69-0.01-3.39-0.01-5.09-0.04-13.39-0.09-26.75-0.14-40.02l-0.13-29.92z" fill="#FFFFFF" p-id="4754"></path><path d="M576.55 285.75l-5.59 0.18-5.09 0.17-32.89 1.08-63.53 2.09-36.5 1.2-5.09 0.17-32.9 1.07-63.53 2.08-45.26 1.47-5.09 0.17-25.47 0.84-4.74 0.15c0.32-1.74 0.62-3.46 0.93-5.12l3.66-0.11 25.47-0.84 5.09-0.17 45.27-1.47 63.53-2.08 32.89-1.07 5.09-0.18 36.51-1.18 63.53-2.09 32.88-1.08 5.09-0.17 5.72-0.18c-0.01 1.62 0.01 3.33 0.02 5.07zM577.41 431.64l-1.97 0.06-5.09 0.17-33.26 1.08-63.55 2.09-36.12 1.18-5.09 0.17-33.27 1.08-63.54 2.08-44.88 1.46-5.09 0.17-25.85 0.84-30.65 1c0.23-1.7 0.45-3.41 0.67-5.11l29.83-0.98 25.85-0.84 5.09-0.17 44.89-1.47 63.53-2.07 33.27-1.08 5.09-0.18 36.13-1.17 63.53-2.09 33.26-1.08 5.09-0.17 2.08-0.08c0.03 1.7 0.04 3.41 0.05 5.11zM578.04 582.14l-3.04 0.1-33.67 1.09-63.55 2.08-35.73 1.17-5.09 0.17-33.67 1.09-63.54 2.08-44.49 1.45-5.09 0.17-26.24 0.86-48.76 1.6-0.17-5.09 48.81-1.59 26.23-0.86 5.09-0.17 44.5-1.45 63.54-2.08 33.65-1.09 5.09-0.17 35.74-1.17 63.54-2.08 33.64-1.09 3.19-0.1c0 1.68 0.02 3.38 0.02 5.08zM578.25 729.64c0.01 1.7 0 3.41 0 5.1l-32.62 1.07-63.54 2.07-35.32 1.16-5.09 0.17-34.07 1.12-63.54 2.07-44.09 1.45-5.07 0.17-26.65 0.86-53.08 1.74-0.17-5.09 53.11-1.74 26.62-0.86 5.09-0.17 44.1-1.45 63.53-2.07 34.06-1.12 5.09-0.17 35.34-1.16 63.53-2.08 32.77-1.07zM549.33 867.37l28.24-0.84c-0.01 1.73-0.04 3.42-0.06 5.09l-28.02 0.83-63.54 1.88-34.98 1.04-5.09 0.15-34.43 1.02-63.54 1.88-43.74 1.3-5.09 0.15-27 0.8-63.54 1.88-18.64 0.55c-0.06-1.61-0.11-3.31-0.14-5.07l18.64-0.56 63.54-1.88 26.98-0.8 5.09-0.15 43.76-1.28 63.53-1.88 34.43-1.03 5.09-0.14 34.99-1.04 63.52-1.9z" fill="#FFFFFF" p-id="4755"></path><path d="M576.88 901.73c-0.19 5.87-0.39 10.54-0.62 13.83-7.68 3.55-16.16 6.57-25.31 9.14-18.75 5.28-40.29 8.62-63.3 10.41-11.29 0.89-22.94 1.4-34.8 1.6-1.69 0.03-3.38 0.05-5.09 0.06-11.43 0.1-23.01-0.09-34.63-0.52-21.41-0.79-42.94-2.42-63.72-4.6-15.09-1.6-29.8-3.48-43.81-5.57-1.72-0.25-3.42-0.52-5.11-0.78-9.47-1.46-18.6-3.01-27.27-4.6-16.87-3.12-32-6.42-44.65-9.69l44.33-1.18 27.08-0.72 5.09-0.14 43.67-1.16 63.54-1.7 34.52-0.92 5.09-0.14 34.9-0.93 63.54-1.69 26.55-0.7z" fill="#FFFFFF" opacity=".4" p-id="4756"></path><path d="M273.21 920.71c-16.87-3.12-32-6.42-44.65-9.69h-0.01l-19.2 0.51-0.17-6.1-0.65-22.87-0.14-5.09-0.75-26.53-1.79-63.54-2.48-87.89-0.71-25.19c1.23-12.65 2.52-25.5 3.85-38.5 2.99-29.05 6.26-58.78 9.66-88.26 2.49-21.51 5.06-42.9 7.68-63.81 1.73-13.82 3.47-27.42 5.21-40.72 0.23-1.7 0.45-3.41 0.67-5.11 1.93-14.6 3.87-28.81 5.78-42.48 3.22-23.03 6.41-44.54 9.48-63.88 2.01-12.73 3.98-24.5 5.86-35.15 0.32-1.74 0.62-3.46 0.93-5.12 1.09-6.05 2.16-11.68 3.19-16.88l0.47 16.77 0.15 5.09 0.98 34.96 1.79 63.54 1.18 42.17 0.15 5.09 1.14 40.65 1.79 63.54 1.16 41.12 0.14 5.09 1.17 41.69 1.79 63.56 1.2 42.13 0.14 5.09 1.14 40.67 1.79 63.54 0.75 26.5 0.14 5.09 0.81 29.17 0.36 10.84z" fill="#FFFFFF" opacity=".4" p-id="4757"></path><path d="M442.56 126.39l-4.53 117.83h138.23s4.53 605.62 0 671.34c-33.55 15.49-82.58 21.24-134.59 21.24-109.54 0-232.2-25.54-250.64-39.37-11.33-79.31 49.85-596.56 72.51-657.74 22.66-56.65 179.02-113.3 179.02-113.3m0-10c-0.12 0-0.23 0-0.35 0.01a10 10 0 0 0-3.29 0.68c-3.61 1.32-41.12 15.14-81.89 35.8-57.87 29.32-92.44 57.28-102.77 83.1l-0.09 0.24c-12.54 33.87-34.48 191.91-49.56 324.42-15.39 135.23-29.63 295.09-23.47 338.21 0.38 2.63 1.78 4.99 3.9 6.59 16.31 12.23 77.18 23.55 95.44 26.72 31.46 5.47 94.23 14.65 161.2 14.65 60.23 0 106.92-7.46 138.78-22.16a9.987 9.987 0 0 0 5.78-8.39c4.51-65.34 0.21-647.36 0.02-672.1-0.04-5.49-4.51-9.93-10-9.93H448.42l4.12-107.21c0.01-0.21 0.02-0.41 0.02-0.62 0-5.48-4.41-9.93-9.88-10-0.04-0.01-0.08-0.01-0.12-0.01z m0 20z" fill="#77380E" p-id="4758"></path><path d="M442.56 107.13l49.2 136.59s-24.27 53.38-65.82 40.54c-26.44-9.82-42.43-80.07-41.98-112.55 0.44-12.84 23.1-45.32 58.6-64.58z" fill="#FFFBB4" p-id="4759"></path><path d="M442.56 107.13l49.2 136.59s-19.34 42.53-53.04 42.53c-4.06 0-8.31-0.61-12.78-1.99-26.44-9.82-42.43-80.07-41.98-112.55 0.44-12.84 23.1-45.32 58.6-64.58m0-10c-1.65 0-3.29 0.41-4.77 1.21-16.91 9.18-33.02 22.34-45.35 37.07-5.41 6.46-18.03 22.89-18.48 35.96 0 0.07 0 0.14-0.01 0.21-0.25 18.67 4.21 45.33 11.38 67.93 9.62 30.34 22.11 48.55 37.12 54.13 0.17 0.06 0.35 0.12 0.53 0.18 5.24 1.62 10.53 2.44 15.73 2.44 39.68 0 61.24-46.42 62.14-48.39a10.02 10.02 0 0 0 0.31-7.53l-49.2-136.59c-0.99-2.74-3.12-4.92-5.85-5.96a9.881 9.881 0 0 0-3.55-0.66z" fill="#77380E" p-id="4760"></path><path d="M462.31 414.19h208.47v8.16H462.31z" fill="#FFFFFF" p-id="4761"></path><path d="M551.74 429.92c-7.4 2.09-12.69 0.22-14.19-3.9s1.16-9.52 8.97-12.36c10.42-3.78 52.48-12.11 53.36-5.36 0.77 5.87-48.14 21.62-48.14 21.62zM487.6 432.08c0 2.56-2.16 4.59-4.71 4.41-9.93-0.72-32.13-3.92-32.13-18.21 0-14.3 22.19-17.5 32.13-18.21 2.55-0.18 4.71 1.85 4.71 4.41v27.6zM645.5 432.08c0 2.56 2.16 4.59 4.71 4.41 9.93-0.72 32.13-3.92 32.13-18.21 0-14.3-22.19-17.5-32.13-18.21-2.55-0.18-4.71 1.85-4.71 4.41v27.6z" fill="#77380E" p-id="4762"></path><path d="M462.31 683.25h208.47v8.16H462.31z" fill="#FFFFFF" p-id="4763"></path><path d="M551.74 698.98c-7.4 2.09-12.69 0.22-14.19-3.9s1.16-9.52 8.97-12.36c10.42-3.78 52.48-12.11 53.36-5.36 0.77 5.87-48.14 21.62-48.14 21.62zM487.6 701.13c0 2.56-2.16 4.59-4.71 4.41-9.93-0.72-32.13-3.92-32.13-18.21s22.19-17.5 32.13-18.21c2.55-0.18 4.71 1.85 4.71 4.41v27.6zM645.5 701.13c0 2.56 2.16 4.59 4.71 4.41 9.93-0.72 32.13-3.92 32.13-18.21s-22.19-17.5-32.13-18.21c-2.55-0.18-4.71 1.85-4.71 4.41v27.6z" fill="#77380E" p-id="4764"></path></svg>